<?xml version="1.0" encoding="UTF-8" standalone="no"?>
<!-- Generator: Adobe Illustrator 18.0.0, SVG Export Plug-In . SVG Version: 6.00 Build 0)  -->

<svg
   version="1.1"
   id="Capa_1"
   x="0px"
   y="0px"
   viewBox="0 0 200 200"
   xml:space="preserve"
   sodipodi:docname="cgull.svg"
   inkscape:version="1.1.1 (3bf5ae0d25, 2021-09-20, custom)"
   width="183.59494"
   height="199.97366"
   xmlns:inkscape="http://www.inkscape.org/namespaces/inkscape"
   xmlns:sodipodi="http://sodipodi.sourceforge.net/DTD/sodipodi-0.dtd"
   xmlns="http://www.w3.org/2000/svg"
   xmlns:svg="http://www.w3.org/2000/svg"><defs
   id="defs121"><linearGradient
     id="linearGradient5085"
     inkscape:swatch="solid"><stop
       style="stop-color:#000000;stop-opacity:1;"
       offset="0"
       id="stop5083" /></linearGradient></defs><sodipodi:namedview
   id="namedview119"
   pagecolor="#ffffff"
   bordercolor="#666666"
   borderopacity="1.0"
   inkscape:pageshadow="2"
   inkscape:pageopacity="0.0"
   inkscape:pagecheckerboard="0"
   showgrid="false"
   inkscape:zoom="2.4096466"
   inkscape:cx="67.437276"
   inkscape:cy="147.94701"
   inkscape:window-width="1138"
   inkscape:window-height="1003"
   inkscape:window-x="0"
   inkscape:window-y="0"
   inkscape:window-maximized="1"
   inkscape:current-layer="layer3" />
















<g
   inkscape:groupmode="layer"
   id="layer2"
   inkscape:label="dropshadow"
   style="opacity:1"
   sodipodi:insensitive="true"><path
     id="path1659-3"
     style="fill:#999999;fill-opacity:1;stroke-width:0.464001;stroke-miterlimit:4;stroke-dasharray:none"
     d="m 41.151881,-0.12474763 c -2.95029,0.03374 -5.88626,0.6821 -8.55041,1.88639203 -2.996707,1.200067 -5.310113,3.437834 -7.705341,5.451608 -2.209086,1.880372 -4.700596,3.5780046 -7.594967,4.3386526 -1.139018,0.303319 -2.316233,0.500722 -3.499655,0.506265 -1.647101,0.228753 -2.981697,1.374777 -3.8820986,2.645843 -0.508902,0.780985 -1.00797,1.689151 -0.871622,2.635121 0.07282,0.336006 0.525183,0.349196 0.811072,0.397334 2.4617066,-1.559587 4.6816446,-3.583771 7.5544166,-4.45759 1.810437,-0.572278 3.83342,-0.499163 5.579699,0.240732 0.247105,0.141844 0.677086,0.113341 0.716971,0.448208 0.399431,1.160881 0.969615,2.29586 1.899832,3.160368 1.796214,1.707026 4.25327,2.552313 6.630813,3.253732 2.25212,0.633747 4.52149,1.210796 6.76634,1.868518 0.46604,-0.0058 0.1633,0.339982 0.0794,0.585697 -0.37918,0.897654 -0.82833,1.92403 -1.15657,2.7442 -2.68241,6.764873 -3.5767,14.154497 -2.62863,21.324508 0.0229,0.139561 0.0707,0.512541 0.1068,0.74361 0.42019,2.783855 1.12713,5.529575 2.12105,8.179054 0.049,0.12789 0.18598,0.49207 0.27527,0.71098 1.17182,2.969403 2.74492,5.788836 4.6246,8.4078 1.59033,2.321569 3.46924,4.461979 5.5646,6.387068 0.12218,0.112689 0.39423,0.359768 0.5779,0.520338 5.80545,5.125696 13.04891,8.635135 20.64205,10.681488 0.59534,0.146562 1.18839,0.294571 1.74116,0.554554 2.73446,0.958913 5.76998,0.880685 8.43615,2.051085 1.47771,0.627359 2.72846,1.835118 3.11625,3.355442 0.33222,1.18298 0.16476,2.429643 -0.13849,3.598547 0.007,2.638342 -0.0149,5.310056 0.0111,7.927553 0.99628,-0.163541 2.03269,-0.232119 3.02437,-0.282504 -0.27118,-1.650357 -0.0994,-3.32918 0.0279,-4.983103 0.24972,-0.852425 0.0207,-1.744572 -0.0432,-2.608189 -0.15467,-1.459186 -0.38338,-3.044526 0.36603,-4.397405 0.50015,-0.927142 1.53411,-1.523185 2.61392,-1.612601 1.4583,-0.455005 3.17596,-0.66417 4.55166,0.128582 1.28069,0.709903 1.85524,2.149807 1.92745,3.498713 0.11158,1.539082 -0.13561,3.077473 -0.0565,4.617581 2.9e-4,1.889643 4.8e-4,3.77929 9.5e-4,5.668936 1.01449,0.007 2.03882,-0.0152 3.03367,-0.221585 0,-4.601553 0,-9.203105 0,-13.804658 2.680209,-0.220519 5.362819,-0.481253 7.995779,-1.022673 4.13148,-0.810691 8.15646,-2.073115 12.03347,-3.646563 0.15752,-0.06779 0.52382,-0.216795 0.76131,-0.315689 0.28073,-0.116246 0.70721,-0.299077 1.05832,-0.451746 2.91858,-1.269118 5.74152,-2.730216 8.50265,-4.280314 10.52905,-3.615913 20.9967,-7.458854 31.38409,-11.385945 10.40373,-3.936841 20.79279,-7.957939 31.18243,-11.951615 0.56124,-0.275943 0.98609,-0.96717 0.76332,-1.558021 -0.27902,-0.749192 -1.11535,-1.092005 -1.88758,-1.188413 -2.21135,-0.289422 -4.45633,0.1334 -6.66717,-0.182763 -8.20068,-0.231367 -16.40138,-0.462206 -24.60205,-0.693898 -6.47233,-2.312077 -13.0054,-4.470983 -19.59706,-6.456062 -0.40431,-0.117765 -0.93897,-0.278027 -1.39334,-0.412114 -19.44681,-5.765562 -39.427869,-9.984984 -59.679599,-12.164541 -0.91873,-0.09651 -1.93482,-0.201795 -2.89146,-0.295744 -2.72555,-0.269632 -5.45632,-0.488025 -8.18829,-0.689483 -0.67124,-0.836087 -1.31516,-1.71914 -1.60919,-2.747041 -0.78991,-2.48287 -0.21995,-5.089768 -0.33835,-7.629215 -0.0305,-0.908967 -0.23311,-1.816339 -0.67152,-2.627499 -0.95154,-4.201702 -3.48087,-8.0096746 -6.89046,-10.8087016 -4.3676,-3.610379 -10.13481,-5.71778803 -15.93933,-5.64283403 z m 0.32159,2.93008003 c 3.45115,0.01035 6.96847,0.686342 9.96683,2.360464 3.57317,1.719877 6.40216,4.680907 8.067,8.1235056 1.92176,3.917078 2.51785,8.338116 2.13458,12.620486 -0.0114,1.628555 0.42618,3.391641 1.76726,4.503315 1.50073,1.250303 3.51392,1.712319 5.4341,2.023163 1.30009,0.204982 2.6143,0.312768 3.9279,0.403485 0.1758,0.01216 0.57022,0.03476 0.82973,0.05093 2.60018,0.160578 5.2519,0.247973 7.83257,0.726926 22.537779,2.792941 44.690609,8.056928 66.177359,15.052998 1.06265,0.341611 2.12531,0.683222 3.18797,1.024833 -3.13841,2.293974 -6.26242,4.611443 -9.55881,6.700116 -11.71844,7.502907 -24.90933,13.110295 -38.84598,15.560192 -7.567459,1.327124 -15.333609,1.690549 -22.992269,0.931372 -0.26695,-0.02387 -0.69542,-0.05833 -1.0243,-0.08626 -6.98004,-0.585757 -14.03964,-1.184811 -20.74424,-3.23878 -4.84256,-1.473492 -9.45617,-3.815974 -13.11294,-7.208073 -1.08142,-1.427894 -1.98691,-2.980853 -2.79653,-4.564295 -4.35858,-8.666351 -4.86633,-18.871911 -1.98737,-28.029199 0.52339,-1.67853 1.18181,-3.318389 1.92029,-4.919981 0.30084,-1.2355 0.18461,-2.634909 -0.67975,-3.652688 -1.14999,-1.377317 -2.8606,-2.172648 -4.49426,-2.918283 -2.01226,-0.898793 -4.11977,-1.628669 -6.028776,-2.719883 -1.245826,-1.037594 -2.228998,-2.33268 -2.946424,-3.747329 -0.250888,-0.286129 0.03594,-0.633423 0.0692,-0.951873 0.561852,-2.3961846 2.270693,-4.4579146 4.45095,-5.7363716 2.80154,-1.666035 6.17679,-2.292936 9.44591,-2.308768 z M 155.08716,51.244783 c 3.23808,1.225613 6.78514,1.20172 10.21464,1.198176 2.29451,0.0036 4.60236,-0.04908 6.88226,0.232877 0.69667,0.120889 1.32212,0.503316 1.71196,1.065907 0.14861,0.371027 0.35411,0.745621 0.26493,1.155267 -0.0123,0.900279 -0.74923,1.624159 -1.55399,2.012724 -1.75866,0.853736 -3.66448,1.383742 -5.51135,2.033945 -1.31112,0.446756 -2.64406,0.861957 -3.8802,1.476113 -12.42396,4.655102 -24.79464,9.455622 -37.42021,13.604399 -7.37309,4.810505 -16.02732,7.725053 -24.87998,8.790335 -11.321619,1.367448 -22.954929,-0.118972 -33.619939,-3.92215 -0.76846,-0.302693 -1.6479,-0.484372 -2.20449,-1.118732 -0.27155,-0.355483 -0.39895,-0.807749 -0.61483,-1.200753 0.22596,-0.472579 0.38999,-0.997242 0.65488,-1.437363 0.4564,-0.222115 0.86958,-0.559685 1.40527,-0.567577 1.1365,-0.06924 2.26353,0.187857 3.38854,0.311164 2.14323,0.272527 4.27989,0.654108 6.44432,0.731501 0.84671,-0.02039 1.68692,0.152031 2.53276,0.19367 0.8528,0.07227 1.70694,0.129096 2.56145,0.179766 0.22368,0.0098 0.62528,0.03272 0.91735,0.04679 0.59005,0.02694 1.29176,0.05066 1.81425,0.06709 3.36806,0.08972 6.74111,0.0036 10.0992,-0.257782 0.23031,-0.02048 0.6223,-0.05143 0.91456,-0.07592 0.18694,-0.01596 0.5687,-0.05251 0.83021,-0.07635 13.262369,-1.271772 26.210019,-5.273575 37.771199,-11.566047 7.00782,-3.68992 13.65395,-8.008744 19.74655,-12.955212 0.22087,-0.179251 0.42724,-0.440066 0.72045,-0.212577 0.27007,0.09691 0.54014,0.193828 0.81021,0.290742 z" /><path
     id="path3907-6"
     d="m 43.589401,10.401674 a 3.9092629,3.7132117 0 0 1 -3.90926,3.713213 3.9092629,3.7132117 0 0 1 -3.90926,-3.713213 3.9092629,3.7132117 0 0 1 3.90926,-3.7132116 3.9092629,3.7132117 0 0 1 3.90926,3.7132116 z"
     style="fill:#999999;stroke-width:0.463783" /><path
     id="path9464-7"
     style="color:#000000;fill:#999999;stroke-width:2.56571;stroke-linecap:round;stroke-miterlimit:4;stroke-dasharray:none"
     d="m 90.352111,96.084616 v 0.09021 0.0212 c 0.69559,0.0094 1.39089,0.02803 2.07964,0.06524 0.17059,0.0094 0.34067,0.02402 0.51114,0.03509 0.78557,0.05017 1.56447,0.115879 2.34021,0.200433 0.1807,0.01884 0.36074,0.04334 0.54121,0.06524 0.80075,0.09586 1.59613,0.208912 2.38531,0.340759 0.0986,0.01649 0.19714,0.03297 0.29566,0.05017 0.87623,0.151444 1.745239,0.326369 2.605809,0.52115 h 0.0151 l 0.12516,0.01413 0.0401,0.0212 0.0451,0.0094 0.01,0.0094 h 0.005 c 0.9285,0.2148 1.84737,0.452847 2.75615,0.716589 3.81114,1.106056 7.4422,2.630703 10.83916,4.530113 0.18569,0.10339 0.3668,0.21503 0.55122,0.32069 0.62418,0.35913 1.24157,0.7286 1.84913,1.11248 0.25364,0.15969 0.50572,0.32185 0.75668,0.48608 0.51668,0.33909 1.02473,0.69061 1.52841,1.04734 0.27298,0.1929 0.54739,0.38304 0.81682,0.58131 0.566,0.41737 1.12053,0.84846 1.66872,1.28785 0.12542,0.10057 0.25662,0.19431 0.38061,0.29538 l 0.0151,0.009 h 0.005 l 0.0701,0.0551 c 0.0236,0.0188 0.0465,0.0405 0.0701,0.0601 0.0165,0.0141 0.0337,0.0264 0.0501,0.04 l 0.51615,0.42595 -0.009,0.009 c 0.50327,0.42628 1.00169,0.85811 1.48831,1.30288 l 0.005,0.005 c 0.6875,0.62855 1.35152,1.28016 2.00447,1.94435 7.88045,8.01588 13.17966,18.56796 14.57247,30.31755 0.21103,1.77933 0.33409,3.58255 0.3608,5.41208 h 0.0252 l -0.009,0.54621 v 0.0751 c 5.4e-4,0.005 -1.9e-4,0.0118 0,0.0141 0,0.002 0,0.007 0,0.009 4e-4,0.007 -2.1e-4,0.0141 0,0.0188 0,0.009 0.005,0.0165 0.005,0.0252 0,0.0363 1.2e-4,0.057 0,0.0751 v 0.005 0.0141 l -0.005,0.009 v 0.005 c -5e-5,0.009 2e-5,0.0294 0,0.0301 -2.8e-4,0.007 2.8e-4,0.0141 0,0.0188 -0.001,0.007 -0.005,0.0118 -0.005,0.0188 v 0.045 l -0.009,0.62639 h -0.0188 c -0.001,0.0188 -0.005,0.0367 -0.005,0.0551 1.7e-4,0.005 -1.6e-4,0.009 0,0.0141 0.0189,0.57327 0.045,1.14602 0.045,1.72384 0,28.76089 -23.62168,50.64287 -52.351679,50.64287 -28.72999,0 -51.82048,-21.89157 -51.82048,-50.64287 0,-0.50728 0.0257,-1.00959 0.0401,-1.51337 -0.004,-0.0935 -0.006,-0.18701 -0.0101,-0.28063 h -0.0101 l -0.005,-0.38587 c -0.004,-0.12365 -0.0122,-0.24736 -0.0151,-0.37082 v -0.005 -0.009 -0.005 c -1.3e-4,-0.0188 0,-0.0389 0,-0.0751 v -0.009 -0.005 c 1.2e-4,-0.009 0.004,-0.0165 0.005,-0.0252 1e-5,-0.005 -2e-5,-0.009 0,-0.0141 1.8e-4,-0.002 -5.3e-4,-0.0118 0,-0.0141 v -0.0652 l -0.0101,-0.55624 h 0.0251 c 0.22767,-15.62251 7.33222,-29.58096 18.43049,-38.98177 l -0.01,-0.009 0.51615,-0.42595 0.12026,-0.10033 c 0.15331,-0.12554 0.31641,-0.23706 0.47105,-0.3608 0.54819,-0.4394 1.10272,-0.87049 1.66872,-1.28786 0.26943,-0.19832 0.54383,-0.38843 0.81682,-0.58131 0.50368,-0.35672 1.01173,-0.70825 1.52841,-1.04733 0.25095,-0.16417 0.50304,-0.32628 0.75668,-0.48608 0.60756,-0.38389 1.22495,-0.75336 1.84913,-1.11249 0.18441,-0.10575 0.36554,-0.21715 0.55122,-0.32072 3.39695,-1.89938 7.02802,-3.424026 10.83916,-4.530081 0.90878,-0.263743 1.82765,-0.50179 2.75614,-0.71659 h 0.005 l 0.01,-0.0094 0.0501,-0.0094 0.0401,-0.0212 0.12026,-0.01413 h 0.005 c 0.86379,-0.195722 1.73638,-0.369046 2.61583,-0.521173 0.0985,-0.01649 0.19707,-0.03344 0.29566,-0.05017 0.78919,-0.131895 1.58456,-0.2449 2.38532,-0.340759 0.18048,-0.0212 0.3605,-0.04522 0.54121,-0.06524 0.77573,-0.08455 1.55464,-0.150266 2.34021,-0.200433 0.17047,-0.01178 0.34055,-0.02567 0.51114,-0.03509 0.68874,-0.03721 1.38405,-0.05488 2.07963,-0.06524 v -0.0212 -0.09021 l 0.72161,0.08008 0.82183,-0.185359 z m -3.33232,4.264484 c -0.84879,0.0431 -1.6933,0.10599 -2.53064,0.19054 -3.51043,0.35411 -6.9102,1.07932 -10.17267,2.11472 -1.80075,1.91424 -3.48928,4.15156 -5.03622,6.69993 -0.88143,1.54578 -1.735,3.19755 -2.53566,4.97608 6.28961,3.03424 14.0098,4.74478 22.06418,4.85081 v -18.87706 c -0.59811,0.009 -1.19611,0.0165 -1.78899,0.045 z m 3.33243,18.83196 c 8.10218,-0.10669 15.869659,-1.83284 22.179429,-4.90093 -2.19673,-4.63304 -4.80141,-8.55933 -7.69214,-11.6309 -1.72115,-0.54555 -3.47693,-1.01227 -5.271749,-1.37308 -2.42184,-0.48683 -4.90939,-0.79965 -7.44159,-0.92705 -0.58818,-0.0297 -1.18072,-0.0358 -1.77395,-0.045 z m -19.38822,-15.32415 c -0.45367,0.18018 -0.90589,0.3633 -1.35301,0.55624 -0.9842,0.44531 -1.96522,0.891 -2.92151,1.37308 -0.25678,0.13095 -0.51751,0.25568 -0.77172,0.39085 -0.0653,0.0349 -0.13025,0.0702 -0.19544,0.10528 -2.03239,1.09219 -3.97902,2.31765 -5.83301,3.66819 1.54721,1.30578 3.31673,2.51474 5.31184,3.593 0.94482,-1.99324 1.96889,-3.8579 3.06183,-5.59246 0.86655,-1.48744 1.77006,-2.85192 2.70102,-4.09413 z m 43.141159,9.6014 c 1.93594,-1.05871 3.66209,-2.23825 5.17153,-3.51283 -3.29223,-2.39686 -6.88991,-4.39994 -10.71388,-5.95326 2.05309,2.65961 3.91943,5.84702 5.54235,9.46609 z m 0.63141,1.51338 c 0.2653,0.63371 0.54037,1.25444 0.79176,1.90925 3.42276,8.9159 5.48263,19.75438 5.57743,30.60821 h 0.0301 17.68441 c -0.12413,-8.04996 -2.17276,-15.62602 -5.71274,-22.29467 -3.23508,-5.48961 -7.47166,-10.30688 -12.46277,-14.20668 -1.71759,1.46865 -3.70638,2.79886 -5.90817,3.98389 z m -56.215289,-3.97887 c -5.0431,3.94217 -9.3168,8.82157 -12.563,14.38205 -3.48147,6.62479 -5.49461,14.13679 -5.61752,22.11438 h 17.68441 0.0301 c 0.10813,-10.87621 2.46727,-21.88597 6.03846,-30.88383 0.19808,-0.49906 0.41153,-0.96679 0.61637,-1.45325 l -0.21548,-0.11022 0.01,-0.0252 c -2.23231,-1.19464 -4.24572,-2.53893 -5.98333,-4.02395 z m 54.777189,4.75062 -0.0151,-0.0302 c -6.56802,3.19953 -14.599779,4.97269 -22.931109,5.07632 v 0.0212 26.67945 h 29.175049 c -0.0967,-10.65797 -2.09106,-21.33587 -5.43712,-30.05197 -0.22834,-0.5948 -0.48133,-1.15331 -0.72161,-1.72886 z m -47.190289,0.0751 c -0.19219,0.45572 -0.39563,0.89024 -0.58129,1.35802 -3.49687,8.81062 -5.77322,19.65833 -5.88311,30.31256 h 29.165 v -26.67947 -0.0188 c -8.23565,-0.10245 -16.17462,-1.84069 -22.7006,-4.97109 z m -8.14803,70.21149 c 1.84174,-1.66199 4.01477,-3.16334 6.45939,-4.47996 -3.96637,-8.95038 -6.28749,-20.12173 -6.37922,-32.5175 h -0.005 -17.69443 c 0.22898,14.86098 7.02149,28.11713 17.61939,36.99748 z m 1.66862,-36.99745 c 0.0113,1.40407 0.0516,2.78962 0.12026,4.15926 0.003,0.0436 0.007,0.0869 0.01,0.13023 0.61421,9.87672 2.74284,19.70968 6.14369,27.47122 6.56067,-3.1886 14.58544,-4.95788 22.90606,-5.06128 v -0.0188 -26.67944 h -29.17993 z m 30.72334,26.67952 v 0.0188 c 8.32062,0.10339 16.345389,1.87264 22.906059,5.06128 3.40662,-7.77471 5.53859,-17.62779 6.1487,-27.52134 0.002,-0.0254 0.004,-0.0497 0.005,-0.0751 0.0687,-1.37044 0.10895,-2.75938 0.12026,-4.16427 H 90.352221 Z m 30.768809,-26.67949 c -0.0917,12.39573 -2.41285,23.56708 -6.37922,32.51746 2.44462,1.31662 4.61765,2.81799 6.4594,4.47998 10.59766,-8.88035 17.39031,-22.13651 17.61926,-36.99744 h -17.69443 -0.005 z m -54.491569,33.20901 c 2.38332,5.03028 5.2444,9.24874 8.4388,12.41766 0.15055,0.1465 0.30382,0.28369 0.45602,0.42595 0.20427,0.1943 0.40948,0.38052 0.61638,0.56628 4.03654,1.14182 8.28107,1.7815 12.66823,1.84911 v -20.15994 c -8.10294,0.1067 -15.87219,1.83535 -22.17943,4.90094 z m 23.72287,15.259 c 4.38716,-0.0676 8.63169,-0.70729 12.668239,-1.84912 0.33403,-0.29992 0.67004,-0.58976 0.99722,-0.91204 3.22542,-3.17724 6.11155,-7.42726 8.51397,-12.49784 -6.30724,-3.06559 -14.076489,-4.79429 -22.179429,-4.90094 z m -31.05421,-10.39816 c 4.04171,3.15512 8.57872,5.7022 13.49006,7.48169 -2.94339,-3.14196 -5.53232,-7.03361 -7.68713,-11.55075 -2.21794,1.20887 -4.14189,2.58376 -5.80293,4.06906 z m 47.074919,7.48169 c 4.91135,-1.77949 9.44835,-4.32657 13.49006,-7.48169 -1.66103,-1.4853 -3.58499,-2.86019 -5.80293,-4.06907 -2.15481,4.51715 -4.74374,8.40879 -7.68713,11.55076 z" /></g><g
   inkscape:groupmode="layer"
   id="layer3"
   inkscape:label="main"
   sodipodi:insensitive="true"><path
     id="path1659"
     style="fill:#000000;fill-opacity:1;stroke-width:1.00047;stroke-miterlimit:4;stroke-dasharray:none"
     d="m 72.59375,27.472656 c -6.199811,0.07465 -12.369516,1.509058 -17.968012,4.173398 -6.297331,2.654992 -11.158767,7.605763 -16.192144,12.060977 -4.642216,4.160079 -9.877924,7.915869 -15.960211,9.598706 -2.393553,0.671053 -4.867375,1.107781 -7.354242,1.120044 -3.461248,0.506087 -6.2657956,3.041517 -8.1579144,5.853585 -1.0694163,1.727829 -2.1181686,3.737029 -1.8316426,5.829866 0.1530202,0.743369 1.1036296,0.77255 1.7044004,0.879049 5.1730766,-3.450385 9.8380966,-7.928629 15.8749956,-9.861841 3.804488,-1.26609 8.055622,-1.104334 11.725287,0.532589 0.51927,0.313812 1.422841,0.250753 1.506656,0.991602 0.839372,2.568298 2.037568,5.079292 3.992343,6.991905 3.7746,3.776573 8.937905,5.646663 13.934123,7.19846 4.732635,1.402084 9.501549,2.678731 14.21891,4.133855 0.979343,-0.01284 0.343169,0.752167 0.166817,1.295778 -0.796818,1.985945 -1.740671,4.256667 -2.430434,6.071189 -5.636876,14.966405 -7.516146,31.314992 -5.523854,47.177712 0.04808,0.30876 0.148547,1.13393 0.224428,1.64514 0.88299,6.15892 2.368576,12.23347 4.457213,18.0951 0.102986,0.28294 0.39083,1.08864 0.578448,1.57295 2.462491,6.56942 5.768236,12.80705 9.718236,18.60117 3.341946,5.13617 7.290312,9.87155 11.69355,14.13056 0.256747,0.24931 0.828441,0.79594 1.214402,1.15118 12.199685,11.33994 27.421235,19.10412 43.377615,23.63141 1.25105,0.32425 2.49731,0.6517 3.65891,1.22688 5.74624,2.12147 12.12514,1.9484 17.72788,4.53776 3.10529,1.38795 5.73363,4.05996 6.54854,7.42348 0.69815,2.61719 0.34623,5.37527 -0.29102,7.96132 0.0156,5.83699 -0.0313,11.74781 0.0234,17.53868 2.0936,-0.36181 4.27152,-0.51353 6.35547,-0.625 -0.56988,-3.6512 -0.20891,-7.36538 0.0586,-11.02447 0.52476,-1.88588 0.0434,-3.85964 -0.0907,-5.77028 -0.32503,-3.22826 -0.80564,-6.73562 0.76918,-9.72869 1.05103,-2.05118 3.22381,-3.36985 5.49295,-3.56767 3.06449,-1.00664 6.67401,-1.46939 9.56494,0.28447 2.69126,1.57057 3.89864,4.75617 4.05038,7.74045 0.23448,3.40502 -0.28498,6.80851 -0.11862,10.2158 6.1e-4,4.18059 10e-4,8.36119 0.002,12.54179 2.13186,0.0149 4.2844,-0.0337 6.375,-0.49023 0,-10.18034 0,-20.36068 0,-30.54102 5.63225,-0.48787 11.26954,-1.06471 16.8025,-2.26253 8.68196,-1.79355 17.14014,-4.5865 25.28735,-8.06755 0.33103,-0.14997 1.10078,-0.47963 1.59983,-0.69842 0.58993,-0.25718 1.48615,-0.66167 2.22398,-0.99943 6.13316,-2.80776 12.06535,-6.04025 17.86764,-9.46964 22.12595,-7.99974 44.12286,-16.50175 65.95113,-25.18993 21.86258,-8.70975 43.69435,-17.60591 65.52734,-26.4414 1.1794,-0.61049 2.0722,-2.13974 1.60406,-3.44692 -0.58634,-1.65749 -2.34381,-2.41592 -3.96659,-2.62921 -4.64698,-0.64031 -9.36463,0.29513 -14.01052,-0.40434 -17.23307,-0.51187 -34.46617,-1.02257 -51.69922,-1.53516 -13.60108,-5.11517 -27.3298,-9.89147 -41.18164,-14.2832 -0.84962,-0.26054 -1.97316,-0.6151 -2.928,-0.91175 -40.8659,-12.75556 -82.85447,-22.090484 -125.41184,-26.912471 -1.93065,-0.213505 -4.06588,-0.446446 -6.07617,-0.654297 -5.72753,-0.596526 -11.46602,-1.079692 -17.20703,-1.52539 -1.41056,-1.849735 -2.76371,-3.803376 -3.38159,-6.077474 -1.65994,-5.493029 -0.46221,-11.260452 -0.71101,-16.87865 -0.0641,-2.010971 -0.48986,-4.018415 -1.41116,-5.813002 -1.99958,-9.29572 -7.31476,-17.720365 -14.47973,-23.912852 C 96.910798,31.9692 84.79148,27.306829 72.59375,27.472656 Z m 0.675781,6.482422 c 7.252325,0.02291 14.643681,1.518442 20.944493,5.222221 7.508726,3.805006 13.453616,10.355901 16.952156,17.972204 4.03842,8.666028 5.29106,18.447002 4.48564,27.92119 -0.0239,3.602967 0.89559,7.503568 3.71375,9.963002 3.15367,2.766133 7.38422,3.788284 11.41932,4.475987 2.73205,0.453496 5.49374,0.691958 8.25417,0.892658 0.36944,0.0269 1.19827,0.0769 1.74362,0.11267 5.46405,0.35526 11.03644,0.54861 16.45951,1.60823 47.36132,6.17902 93.9137,17.82491 139.06636,33.30281 2.23309,0.75577 4.46617,1.51154 6.69926,2.26731 -6.59511,5.07512 -13.15995,10.20222 -20.08705,14.82314 -24.62537,16.59921 -52.34495,29.00483 -81.6317,34.42491 -15.9024,2.93609 -32.22234,3.74012 -48.3164,2.06054 -0.56096,-0.0528 -1.46136,-0.12904 -2.15248,-0.19084 -14.66799,-1.29591 -29.50316,-2.62124 -43.59233,-7.16538 -10.176257,-3.25991 -19.871391,-8.44235 -27.55579,-15.94693 -2.272526,-3.15903 -4.17534,-6.59475 -5.876683,-10.09791 -9.159197,-19.17318 -10.226205,-41.75166 -4.176296,-62.010974 1.099863,-3.71353 2.483481,-7.341506 4.035333,-10.884821 0.632194,-2.733385 0.387946,-5.829396 -1.428449,-8.081099 -2.416595,-3.047137 -6.011319,-4.806703 -9.44432,-6.456324 -4.228595,-1.988464 -8.657361,-3.603219 -12.668983,-6.01739 -2.618003,-2.295541 -4.684059,-5.160752 -6.191673,-8.29048 -0.52722,-0.633023 0.07552,-1.401365 0.145417,-2.105896 1.180686,-5.301247 4.771677,-9.862558 9.353303,-12.690977 5.887218,-3.685887 12.980026,-5.072825 19.849822,-5.107851 z M 312.01953,141.12109 c 6.80455,2.71151 14.25842,2.65865 21.46523,2.65081 4.82174,0.008 9.6715,-0.10859 14.46251,0.51521 1.46401,0.26745 2.77833,1.11352 3.59756,2.35818 0.31229,0.82085 0.74412,1.64959 0.55673,2.55588 -0.0258,1.99175 -1.57446,3.59324 -3.26559,4.45289 -3.69569,1.88878 -7.70061,3.06135 -11.58166,4.49984 -2.75522,0.98839 -5.55627,1.90697 -8.15393,3.26571 -26.10795,10.29881 -52.10392,20.91934 -78.63554,30.09797 -15.49396,10.64262 -33.68012,17.09068 -52.28327,19.44748 -23.79146,3.0253 -48.23794,-0.26321 -70.64958,-8.67725 -1.61486,-0.66967 -3.46293,-1.07161 -4.63257,-2.47505 -0.57063,-0.78646 -0.83836,-1.78704 -1.292,-2.65651 0.47483,-1.04552 0.81952,-2.20627 1.37617,-3.17998 0.95908,-0.4914 1.82735,-1.23823 2.95305,-1.25569 2.38828,-0.15319 4.75664,0.41561 7.12075,0.68841 4.50383,0.60293 8.99385,1.44713 13.54222,1.61835 1.77929,-0.0451 3.54492,0.33635 5.32239,0.42847 1.79209,0.1599 3.58699,0.28561 5.38269,0.39771 0.47004,0.0217 1.31396,0.0724 1.92773,0.10351 1.23993,0.0596 2.71453,0.11208 3.8125,0.14844 7.07771,0.19849 14.16589,0.008 21.22266,-0.57031 0.48397,-0.0453 1.3077,-0.11379 1.92187,-0.16797 0.39283,-0.0353 1.19508,-0.11618 1.74462,-0.16892 27.8698,-2.81363 55.07823,-11.6671 79.37312,-25.58838 14.72637,-8.16347 28.69267,-17.71831 41.49577,-28.66173 0.46415,-0.39657 0.89781,-0.97359 1.51398,-0.4703 0.56753,0.21441 1.13506,0.42882 1.70259,0.64323 z"
     transform="matrix(0.47586888,0,0,0.45200385,5.7843079,-13.36565)" /><path
     id="path3907"
     d="m 77.716,50.761002 a 8.2150002,8.2150002 0 0 1 -8.215001,8.215 8.2150002,8.2150002 0 0 1 -8.215,-8.215 8.2150002,8.2150002 0 0 1 8.215,-8.215001 8.2150002,8.2150002 0 0 1 8.215001,8.215001 z"
     transform="matrix(0.47586888,0,0,0.45200385,5.7843079,-13.36565)" /><path
     id="path9464"
     style="color:#000000;fill:#000000;stroke-width:2.56571;stroke-linecap:round;stroke-miterlimit:4;stroke-dasharray:none"
     d="m 89.529643,95.261459 v 0.09021 0.0212 c 0.695585,0.0094 1.390892,0.02803 2.079635,0.06524 0.170592,0.0094 0.340672,0.02402 0.511139,0.03509 0.785571,0.05017 1.564475,0.115879 2.340215,0.200433 0.180696,0.01884 0.360734,0.04334 0.541209,0.06524 0.800754,0.09586 1.596125,0.208912 2.385313,0.340759 0.09859,0.01649 0.197135,0.03297 0.295661,0.05017 0.876224,0.151444 1.745239,0.326369 2.605805,0.52115 h 0.0151 l 0.12516,0.01413 0.0401,0.0212 0.0451,0.0094 0.01,0.0094 h 0.005 c 0.9285,0.2148 1.84737,0.452847 2.75615,0.716589 3.81114,1.106056 7.4422,2.63071 10.83916,4.53012 0.18569,0.10339 0.3668,0.21503 0.55122,0.32069 0.62418,0.35913 1.24157,0.7286 1.84913,1.11248 0.25364,0.15969 0.50572,0.32185 0.75668,0.48608 0.51668,0.33909 1.02473,0.69061 1.52841,1.04734 0.27298,0.1929 0.54739,0.38304 0.81682,0.58131 0.566,0.41737 1.12053,0.84846 1.66872,1.28785 0.12542,0.10057 0.25662,0.19431 0.38061,0.29538 l 0.0151,0.009 h 0.005 l 0.0701,0.0551 c 0.0236,0.0188 0.0465,0.0405 0.0701,0.0601 0.0165,0.0141 0.0337,0.0264 0.0501,0.04 l 0.51615,0.42595 -0.009,0.009 c 0.50327,0.42628 1.00169,0.85811 1.48831,1.30288 l 0.005,0.005 c 0.6875,0.62855 1.35152,1.28016 2.00447,1.94435 7.88045,8.01588 13.17966,18.56796 14.57247,30.31755 0.21103,1.77933 0.33409,3.58254 0.3608,5.41207 h 0.0252 l -0.009,0.54621 v 0.0751 c 5.4e-4,0.005 -1.9e-4,0.0118 0,0.0141 0,0.002 0,0.007 0,0.009 4e-4,0.007 -2.1e-4,0.0141 0,0.0188 0,0.009 0.005,0.0165 0.005,0.0252 0,0.0363 1.2e-4,0.057 0,0.0751 v 0.005 0.0141 l -0.005,0.009 v 0.005 c -5e-5,0.009 2e-5,0.0294 0,0.0301 -2.8e-4,0.007 2.8e-4,0.0141 0,0.0188 -0.001,0.007 -0.005,0.0118 -0.005,0.0188 v 0.045 l -0.009,0.62638 h -0.0188 c -10e-4,0.0188 -0.005,0.0367 -0.005,0.0551 1.7e-4,0.005 -1.6e-4,0.009 0,0.0141 0.0189,0.57327 0.045,1.14602 0.045,1.72384 0,28.76089 -23.62168,50.64287 -52.351676,50.64287 -28.729994,0 -51.820489,-21.89157 -51.820489,-50.64287 0,-0.50728 0.02567,-1.00959 0.04009,-1.51337 -0.0042,-0.0935 -0.0064,-0.18701 -0.01013,-0.28063 h -0.01013 l -0.005,-0.38587 c -0.004,-0.12365 -0.01225,-0.24735 -0.01507,-0.37081 v -0.005 -0.009 -0.005 c -1.25e-4,-0.0188 0,-0.0389 0,-0.0751 v -0.009 -0.005 c 1.27e-4,-0.009 0.0035,-0.0165 0.005,-0.0252 1.2e-5,-0.005 -1.4e-5,-0.009 0,-0.0141 1.88e-4,-0.002 -5.3e-4,-0.0118 0,-0.0141 v -0.0652 l -0.01013,-0.55624 h 0.02506 c 0.227673,-15.6225 7.332223,-29.58095 18.430495,-38.98176 l -0.0099,-0.009 0.516152,-0.42595 0.12026,-0.10033 c 0.153304,-0.12554 0.316411,-0.23706 0.471048,-0.3608 0.54819,-0.4394 1.102716,-0.87049 1.668719,-1.28786 0.26943,-0.19832 0.543835,-0.38843 0.81682,-0.58131 0.50368,-0.35672 1.011734,-0.70825 1.528406,-1.04733 0.250954,-0.16417 0.50304,-0.32628 0.756685,-0.48608 0.607562,-0.38389 1.224948,-0.75336 1.849126,-1.11249 0.184417,-0.10575 0.365544,-0.21715 0.551226,-0.32072 3.396948,-1.89938 7.028017,-3.424033 10.839158,-4.530088 0.908778,-0.263743 1.827645,-0.50179 2.756142,-0.71659 h 0.0052 l 0.0099,-0.0094 0.05012,-0.0094 0.04011,-0.0212 0.12026,-0.01413 h 0.0052 c 0.863789,-0.195722 1.736374,-0.369046 2.61583,-0.521173 0.0985,-0.01649 0.197065,-0.03344 0.295661,-0.05017 0.789188,-0.131895 1.584558,-0.2449 2.385315,-0.340759 0.180484,-0.0212 0.360504,-0.04522 0.541207,-0.06524 0.775739,-0.08455 1.554644,-0.150266 2.340214,-0.200433 0.170474,-0.01178 0.340546,-0.02567 0.51114,-0.03509 0.688745,-0.03721 1.384052,-0.05488 2.079635,-0.06524 v -0.0212 -0.09021 l 0.721608,0.08008 0.821832,-0.185359 z m -3.332323,4.264489 c -0.84879,0.0431 -1.693298,0.105987 -2.530639,0.190541 -3.510433,0.354111 -6.9102,1.079321 -10.172673,2.114721 -1.800752,1.91424 -3.489279,4.15156 -5.036222,6.69993 -0.881422,1.54578 -1.734991,3.19755 -2.535651,4.97608 6.289606,3.03424 14.009798,4.74478 22.064174,4.85081 V 99.480963 c -0.598106,0.0094 -1.196107,0.01649 -1.788989,0.04499 z m 3.332429,18.831962 c 8.102178,-0.10669 15.869661,-1.83284 22.179431,-4.90093 -2.19673,-4.63304 -4.80141,-8.55933 -7.69214,-11.6309 -1.72115,-0.54555 -3.47693,-1.01227 -5.271754,-1.37308 -2.421831,-0.486829 -4.909388,-0.799655 -7.441583,-0.927052 -0.588184,-0.02968 -1.180722,-0.0358 -1.773954,-0.04499 z M 70.141534,103.03376 c -0.453671,0.18018 -0.905893,0.3633 -1.353017,0.55624 -0.984199,0.44531 -1.96522,0.891 -2.92151,1.37308 -0.256773,0.13095 -0.517508,0.25568 -0.771721,0.39085 -0.06533,0.0349 -0.130246,0.0702 -0.19544,0.10528 -2.032383,1.09219 -3.979017,2.31765 -5.833001,3.66819 1.547204,1.30578 3.316724,2.51474 5.31184,3.593 0.944817,-1.99324 1.968888,-3.8579 3.061823,-5.59246 0.866549,-1.48744 1.770061,-2.85192 2.701022,-4.09413 z m 43.141156,9.6014 c 1.93594,-1.05871 3.66209,-2.23825 5.17153,-3.51283 -3.29223,-2.39686 -6.88991,-4.39994 -10.71388,-5.95326 2.05309,2.65961 3.91943,5.84702 5.54235,9.46609 z m 0.63141,1.51338 c 0.2653,0.63371 0.54037,1.25444 0.79176,1.90925 3.42276,8.9159 5.48263,19.75438 5.57743,30.60821 h 0.0301 17.68441 c -0.12413,-8.04996 -2.17276,-15.62602 -5.71274,-22.29467 -3.23508,-5.48961 -7.47166,-10.30688 -12.46277,-14.20668 -1.71759,1.46865 -3.70638,2.79886 -5.90817,3.98389 z m -56.215294,-3.97887 c -5.043092,3.94217 -9.316797,8.82157 -12.562997,14.38205 -3.481474,6.62479 -5.494606,14.13679 -5.61752,22.11438 h 17.684414 0.0301 c 0.10813,-10.87621 2.467272,-21.88597 6.038456,-30.88383 0.198077,-0.49906 0.411528,-0.96679 0.616375,-1.45325 l -0.215484,-0.11022 0.0099,-0.0252 c -2.232311,-1.19464 -4.245725,-2.53893 -5.983335,-4.02395 z m 54.777194,4.75062 -0.0151,-0.0302 c -6.56802,3.19953 -14.599778,4.97269 -22.931114,5.07632 v 0.0212 26.67945 h 29.175054 c -0.0967,-10.65797 -2.09106,-21.33587 -5.43712,-30.05197 -0.22834,-0.5948 -0.48133,-1.15331 -0.72161,-1.72886 z m -47.190286,0.0751 c -0.19219,0.45572 -0.395637,0.89024 -0.581293,1.35802 -3.496869,8.81062 -5.773222,19.65833 -5.883112,30.31256 h 29.165 v -26.67947 -0.0188 c -8.235651,-0.10245 -16.174624,-1.84069 -22.700595,-4.97109 z m -8.148038,70.21149 c 1.841744,-1.66199 4.014777,-3.16335 6.459396,-4.47997 -3.966367,-8.95038 -6.287492,-20.12173 -6.379218,-32.51749 h -0.0052 -17.694436 c 0.228979,14.86097 7.021496,28.11713 17.619388,36.99748 z m 1.668628,-36.99746 c 0.01131,1.40407 0.0516,2.78962 0.120259,4.15926 0.0026,0.0436 0.0073,0.0869 0.0099,0.13024 0.61421,9.87671 2.742837,19.70968 6.14369,27.47122 6.560663,-3.1886 14.585433,-4.95788 22.906052,-5.06128 v -0.0188 -26.67944 h -29.17993 z m 30.723337,26.67952 v 0.0188 c 8.320619,0.1034 16.345389,1.87265 22.906059,5.06128 3.40662,-7.77471 5.53859,-17.62779 6.1487,-27.52134 0.002,-0.0254 0.004,-0.0497 0.005,-0.0751 0.0687,-1.37044 0.10895,-2.75938 0.12026,-4.16427 H 89.529749 Z m 30.768809,-26.67949 c -0.0917,12.39573 -2.41285,23.56708 -6.37922,32.51746 2.44462,1.31662 4.61765,2.818 6.4594,4.47999 10.59766,-8.88035 17.39031,-22.13651 17.61926,-36.99745 h -17.69443 -0.005 z m -54.49157,33.20901 c 2.38332,5.03028 5.244404,9.24875 8.438804,12.41766 0.150549,0.1465 0.303817,0.28369 0.456017,0.42595 0.204272,0.19431 0.409474,0.38052 0.616375,0.56628 4.036544,1.14183 8.281072,1.7815 12.668233,1.84912 v -20.15994 c -8.102944,0.1067 -15.872189,1.83534 -22.179429,4.90093 z m 23.722869,15.25901 c 4.387158,-0.0676 8.631688,-0.70729 12.668241,-1.84912 0.33403,-0.29992 0.67004,-0.58976 0.99722,-0.91205 3.22542,-3.17723 6.11155,-7.42726 8.51397,-12.49784 -6.30724,-3.06559 -14.076488,-4.79428 -22.179431,-4.90093 z M 58.47554,186.27931 c 4.041709,3.15511 8.578716,5.70219 13.490064,7.48169 -2.943395,-3.14197 -5.532328,-7.03362 -7.687133,-11.55076 -2.217936,1.20888 -4.141895,2.58377 -5.802931,4.06907 z m 47.07492,7.48169 c 4.91135,-1.7795 9.44835,-4.32658 13.49006,-7.48169 -1.66103,-1.4853 -3.58499,-2.86019 -5.80293,-4.06907 -2.15481,4.51714 -4.74374,8.40879 -7.68713,11.55076 z" /></g></svg>
